<?xml version="1.0" encoding="UTF-8" standalone="no"?>
<svg width="201px" height="232px" viewBox="0 0 201 232" version="1.1" xmlns="http://www.w3.org/2000/svg" xmlns:xlink="http://www.w3.org/1999/xlink">
    <!-- Generator: Sketch 41.2 (35397) - http://www.bohemiancoding.com/sketch -->
    <title>StPhilipsLogo</title>
    <desc>Created with Sketch.</desc>
    <defs></defs>
    <g id="Page-1" stroke="none" stroke-width="1" fill="none" fill-rule="evenodd">
        <path d="M151.4038,94.5522 L111.0968,94.5522 L111.0968,153.2122 C134.4898,148.4172 152.0898,127.7152 152.0898,102.9022 C152.0898,100.0572 151.8488,97.2702 151.4038,94.5522 Z M66.5158,156.6552 L66.7168,156.3072 L67.0678,156.5062 C69.8428,158.0682 72.7258,159.4152 75.6818,160.5782 L77.0968,158.3312 C56.9658,150.1492 41.8398,131.6942 38.0088,109.5572 L30.8718,112.7272 L23.6988,109.9542 C27.1848,133.8242 41.3928,154.0542 61.1508,165.8522 L66.5158,156.6552 Z M126.6618,161.3792 C118.5518,164.5482 109.8688,166.2172 101.0938,166.2172 C92.2148,166.2172 83.4328,164.5122 75.2458,161.2702 L75.1998,161.3442 C73.8508,160.7892 72.5278,160.1732 71.2228,159.5292 C70.2388,159.0652 69.2758,158.5582 68.3138,158.0492 C67.8878,157.8252 67.4518,157.6242 67.0298,157.3912 C66.7918,157.7992 63.8178,162.9002 61.8518,166.2682 C60.9598,167.7982 60.2738,168.9742 60.1478,169.1912 C72.6028,176.1662 86.7428,179.8722 101.0938,179.8722 C115.4208,179.8722 129.5428,176.1772 141.9858,169.2242 C141.8608,169.0112 141.1978,167.8922 140.3318,166.4262 C138.3458,163.0692 135.2748,157.8762 135.0318,157.4652 C132.3298,158.9592 129.5288,160.2572 126.6618,161.3792 Z M171.0858,112.8222 L163.9328,109.6722 C160.1728,131.8532 145.0748,150.0582 124.9328,158.2982 L126.2638,160.6692 C129.2588,159.5062 132.1828,158.1542 134.9928,156.5812 L135.3408,156.3862 L141.0328,166.0102 C160.7128,154.1512 174.8308,133.8902 178.2358,110.0422 L171.0858,112.8222 Z M90.3698,52.5912 C77.1508,55.2982 65.7908,63.0912 58.4018,73.8272 L90.3698,73.8272 L90.3698,52.5912 Z M111.0968,73.8272 L143.0628,73.8272 C135.6728,63.0912 124.3138,55.2992 111.0968,52.5912 L111.0968,73.8272 Z M90.3698,94.5522 L50.0608,94.5522 C49.6168,97.2702 49.3758,100.0572 49.3758,102.9022 C49.3758,127.7152 66.9718,148.4202 90.3698,153.2132 L90.3698,94.5522 Z" id="Shield" fill="#FFCF00"></path>
        <path d="M120.8496,37.9384 C120.0996,38.1584 119.4666,38.1974 118.9116,38.0564 C118.7656,38.0184 118.1206,37.8114 118.1206,37.0964 C118.1206,36.9874 118.1346,36.8684 118.1686,36.7354 C118.1686,36.7354 119.1096,33.0564 119.1926,32.7304 C119.4996,32.8104 121.8366,33.4074 121.8366,33.4074 L122.2966,31.5964 C122.2966,31.5964 119.9636,31.0014 119.6556,30.9224 C119.7266,30.6404 120.1446,28.9954 120.1446,28.9954 L119.7756,29.2044 L115.9126,31.3744 L115.7756,31.6674 L115.7276,31.8464 C115.7276,31.8464 116.9106,32.1484 117.1826,32.2174 C117.0996,32.5424 116.1276,36.3504 116.1276,36.3504 C116.0536,36.6434 116.0166,36.9264 116.0166,37.1954 C116.0166,38.4764 116.8466,39.4524 118.3206,39.8294 C118.9036,39.9784 119.8866,39.9654 120.5606,39.7984 L120.6656,39.7714 L121.1566,37.8474 L120.8496,37.9384 Z M123.9556,32.1674 L123.8976,32.3394 L121.1336,40.4924 L123.0976,41.1564 L125.9196,32.8304 L123.9556,32.1674 Z M127.5766,41.4414 C127.0136,41.1934 126.7866,40.6444 127.0236,40.1044 C127.3496,39.3684 128.5016,39.3784 129.8746,39.4974 C129.7056,39.8804 128.9896,41.5054 128.9896,41.5054 C128.5036,41.6154 127.9926,41.6264 127.5766,41.4414 Z M130.8246,42.8374 C130.7466,42.7754 130.7956,42.5524 130.7956,42.5524 L132.5476,38.5864 C133.2846,36.9164 132.5806,35.3634 130.7136,34.5404 C129.5176,34.0104 128.4586,33.9744 127.4796,34.4304 L126.6566,36.1874 L126.4576,36.6344 L126.9006,36.4234 C127.9356,35.9334 128.9406,35.8764 129.8046,36.2604 C130.4206,36.5324 130.7116,36.8554 130.7116,37.3074 C130.7116,37.5124 130.6516,37.7414 130.5376,38.0054 C130.5376,38.0054 130.4596,38.1774 130.4076,38.2984 C130.1876,38.2784 128.9366,38.1764 128.9366,38.1764 C127.3636,38.0534 125.7006,37.9254 124.9896,39.5324 C124.4806,40.6864 125.0026,41.9974 126.1786,42.5154 C126.8836,42.8254 127.6776,42.8754 128.5266,42.7064 C128.5266,42.7204 128.5226,42.7314 128.5226,42.7444 C128.5226,43.2934 128.8396,43.6924 129.4976,43.9824 C130.0366,44.2214 130.4396,44.2104 131.3786,44.0634 L131.4776,44.0474 L132.0486,42.7544 L130.8246,42.8374 Z M91.1176,28.9644 C90.2206,29.0864 89.4256,29.6424 88.8566,30.3984 C88.7756,29.8014 88.1406,25.1284 88.1406,25.1284 L87.9586,25.1514 L86.0846,25.4084 L87.8596,38.4504 L89.9166,38.1714 L89.0776,32.0024 C89.7006,31.1884 90.1986,30.8024 90.8886,30.7094 C91.8086,30.5834 92.4776,31.2134 92.6336,32.3514 L93.3626,37.7034 L95.4166,37.4214 L94.6966,32.1294 C94.5356,30.9444 94.0766,30.0334 93.3656,29.4944 C92.7566,29.0314 91.9796,28.8464 91.1176,28.9644 Z M99.0916,30.1864 C99.0836,29.6474 99.0706,28.5474 99.0706,28.5474 L96.9956,28.5764 L97.1166,37.3664 L99.1906,37.3354 L99.1286,32.7454 C99.1166,32.0014 99.3676,31.3104 99.8166,30.8494 C100.1506,30.5024 100.5616,30.3174 101.0066,30.3124 C101.3196,30.3064 101.9436,30.5694 102.4856,31.0664 L102.6486,31.2184 L103.7266,29.4394 L103.6136,29.3404 C102.8466,28.6504 102.1486,28.3344 101.4186,28.3464 C100.6026,28.3564 99.8396,29.0264 99.0916,30.1864 Z M104.9506,28.8214 L104.3596,37.4114 L106.4306,37.5554 L107.0346,28.7844 L104.9636,28.6404 L104.9506,28.8214 Z M108.8526,31.2154 C108.6376,32.6314 109.9466,33.6444 110.9976,34.4584 C111.6616,34.9734 112.2886,35.4584 112.2326,35.8344 C112.1516,36.3554 111.5586,36.4844 111.0326,36.4324 C110.3466,36.3304 109.4026,35.7794 108.5126,34.9604 L108.2606,34.7284 L107.9226,36.9584 L108.0116,37.0214 C109.0356,37.7544 109.8546,38.1034 110.9386,38.2674 C111.8536,38.4064 112.7086,38.2294 113.3406,37.7624 C113.8816,37.3634 114.2246,36.7884 114.3286,36.0944 C114.4806,35.0874 113.8756,34.3354 112.7086,33.3004 C111.8056,32.5884 110.8986,31.8214 110.9526,31.4804 C111.0056,31.1324 111.4186,30.9564 111.9806,31.0424 C112.6566,31.1464 113.4746,31.5854 114.2206,32.2484 L114.4706,32.4714 L114.7886,30.3964 L114.6996,30.3324 C113.8586,29.7164 113.0466,29.3544 112.2176,29.2294 C110.4006,28.9524 109.0796,29.7314 108.8526,31.2154 Z M137.6856,39.2384 C137.8566,38.9594 138.1656,38.4474 138.1656,38.4474 L136.3936,37.3724 L136.3006,37.5274 L131.8346,44.8904 L133.6106,45.9664 L136.8366,40.6424 C137.8316,40.4014 138.4626,40.4154 139.0606,40.7744 C139.8536,41.2594 139.9776,42.1684 139.3836,43.1514 L136.5806,47.7674 L138.3576,48.8414 L141.1476,44.2424 C142.5136,41.9854 141.6206,40.3454 140.3316,39.5634 C139.5636,39.0974 138.6006,39.0134 137.6856,39.2384 Z M163.6806,91.3794 C163.0436,91.5024 162.5036,90.7704 162.2396,89.4194 C162.0546,88.4774 162.0956,87.7724 162.3596,87.3804 L162.9016,87.0284 L163.5466,87.1684 C163.9106,87.4134 164.1916,87.9204 164.3176,88.5614 C164.4746,89.3594 164.5256,90.4924 164.1486,91.0544 L163.6806,91.3794 Z M171.6606,87.5714 C171.6806,87.6754 171.6896,87.7794 171.6896,87.8834 C171.6896,88.1954 171.6006,88.5024 171.4296,88.7554 C171.2416,89.0374 170.9716,89.2234 170.6696,89.2834 C169.8636,89.4404 169.1856,88.9584 169.0186,88.1084 C168.8376,87.1884 169.2426,86.4904 170.0506,86.3314 C170.7636,86.1914 171.5016,86.7594 171.6606,87.5714 Z M167.3326,88.6704 C167.5986,89.3744 167.9326,90.2514 168.6866,90.7354 C169.1626,91.0634 170.0796,91.3344 170.8306,91.1874 C171.4626,91.0634 171.8856,90.7334 172.3206,90.1684 C172.4126,90.6224 172.6276,91.7194 172.6276,91.7194 L174.2536,91.3984 L173.5336,87.7334 C173.2726,86.3934 172.7016,85.3964 171.8856,84.8494 C171.2716,84.4354 170.5296,84.2994 169.7416,84.4534 C169.0996,84.5784 168.5776,84.8504 168.1856,85.2624 C167.8496,85.6244 167.6556,86.1394 167.4996,86.6944 C167.1156,86.0264 166.5776,85.6224 166.0356,85.7304 C165.6676,85.7994 165.3956,86.1254 165.1626,86.6244 C164.5046,85.4004 163.6496,84.8654 162.4476,85.1034 C160.8926,85.4084 160.1026,87.3454 160.5646,89.7094 C161.0796,92.3234 162.4376,93.6764 164.1996,93.3324 C165.0986,93.1544 166.1706,92.4754 166.1666,90.2514 C166.1646,89.4284 166.1616,87.7184 166.5806,87.6384 C166.8996,87.5764 167.0666,87.9694 167.3326,88.6704 Z M169.6846,79.6774 C169.6846,80.3584 169.2476,80.9024 168.5116,81.2514 C168.3836,80.8734 167.3966,77.9564 167.2706,77.5844 C168.4166,77.4764 169.2126,77.9604 169.5706,79.0154 C169.6476,79.2444 169.6846,79.4664 169.6846,79.6774 Z M167.7926,83.7204 L167.9656,83.6634 C169.5766,83.1194 170.6566,82.3114 171.1746,81.2624 C171.5946,80.4144 171.6276,79.4514 171.2716,78.3974 C170.8926,77.2784 170.1826,76.4354 169.2146,75.9594 C168.1976,75.4544 166.9466,75.4104 165.6956,75.8344 C164.4166,76.2674 163.3756,77.1374 162.8376,78.2234 C162.3486,79.2164 162.2916,80.3384 162.6746,81.4684 C163.1266,82.8104 163.7176,83.6584 164.7786,84.4934 L164.8556,84.5524 L166.7906,83.8974 L166.5306,83.6894 C165.5576,82.9064 164.9646,82.1284 164.6636,81.2424 C164.5356,80.8624 164.4736,80.5064 164.4736,80.1734 C164.4736,79.2874 164.9746,78.5874 165.8756,78.0464 C166.0296,78.5014 167.7926,83.7204 167.7926,83.7204 Z M171.1846,95.0434 C172.2866,95.2504 172.9556,95.8774 173.0266,96.9714 C173.0276,97.0214 173.0306,97.0714 173.0306,97.1204 C173.0306,98.0594 172.4126,98.6574 171.4196,98.8424 C171.3946,98.4294 171.2136,95.5084 171.1846,95.0434 Z M165.7246,97.5404 C165.8136,98.9554 166.1616,99.9274 166.9696,101.0074 L167.0276,101.0874 L169.0696,100.9624 L168.8726,100.6944 C168.1366,99.6814 167.7676,98.7744 167.7096,97.8424 C167.7036,97.7514 167.7016,97.6604 167.7016,97.5754 C167.7016,96.2684 168.4166,95.4624 169.7126,95.0894 C169.7436,95.5954 170.0806,101.0534 170.0806,101.0534 L170.2636,101.0424 C171.9596,100.9364 173.2126,100.4384 173.9896,99.5604 C174.6156,98.8504 174.8966,97.9304 174.8286,96.8234 C174.6736,94.3464 172.7346,92.7274 170.1166,92.8894 C167.8006,93.0324 165.5496,94.6754 165.7246,97.5404 Z M156.3266,64.5844 C155.4466,63.2994 155.7746,61.8034 157.1456,60.8624 C158.3926,60.0054 159.9196,60.2854 160.7766,61.5294 C161.6796,62.8474 161.4236,64.4304 160.1646,65.2924 C159.4696,65.7694 158.7466,65.9544 158.0726,65.8294 C157.4046,65.7044 156.8006,65.2734 156.3266,64.5844 Z M162.3246,60.4894 C160.8216,58.3014 158.0216,57.7004 155.9516,59.1224 C154.8886,59.8514 154.1836,60.8994 153.9646,62.0764 C153.7426,63.2774 154.0376,64.5504 154.7976,65.6554 C156.4156,68.0094 159.1216,68.5734 161.3766,67.0234 C163.5176,65.5534 163.9156,62.8064 162.3246,60.4894 Z M154.1426,58.6364 C152.4816,58.2524 151.0056,57.4754 149.9896,56.4494 C147.8376,54.2694 147.7306,51.4844 149.7196,49.5174 C151.6616,47.5974 154.5646,47.7134 156.6196,49.7904 C157.6526,50.8354 158.3236,52.0914 158.7996,53.8574 L158.8806,54.1614 L160.5886,52.4694 L160.5416,52.3554 C159.8076,50.5624 159.0516,49.3314 158.0926,48.3604 C155.0946,45.3244 150.8386,45.1714 147.9786,47.9984 C146.1746,49.7814 144.6946,54.0104 148.4086,57.7684 C150.0076,59.3864 151.4326,60.0054 152.6186,60.3984 L152.7226,60.4324 L154.4656,58.7104 L154.1426,58.6364 Z M172.7816,70.6394 L171.9206,68.7524 L171.7556,68.8264 L159.9436,74.2154 L160.8056,76.1014 L172.7816,70.6394 Z M169.7256,64.4644 L169.5646,64.5504 L158.1176,70.6724 L159.0966,72.5014 L170.7046,66.2914 L169.7256,64.4644 Z M106.2536,25.1754 L105.3736,25.4704 L104.9736,26.2674 L105.2616,27.1104 L106.0926,27.5224 L106.9666,27.2294 L107.3686,26.4304 L107.0806,25.5874 L106.2536,25.1754 Z M36.7286,86.0144 L34.7766,85.6434 L34.8866,85.9454 C35.1536,86.6764 35.2316,87.3074 35.1256,87.8704 C35.0936,88.0424 34.8776,88.8894 33.8576,88.6954 C33.8576,88.6954 30.1216,87.9894 29.7936,87.9264 C29.8536,87.6124 30.3036,85.2454 30.3036,85.2454 L28.4696,84.8984 L28.4356,85.0774 C28.4356,85.0774 28.0216,87.2674 27.9616,87.5794 C27.6746,87.5244 26.0076,87.2104 26.0076,87.2104 L28.6466,91.2894 L28.9526,91.4034 L29.1306,91.4354 C29.1306,91.4354 29.3566,90.2404 29.4096,89.9634 C29.7396,90.0264 33.6006,90.7584 33.6006,90.7584 C34.4126,90.9124 35.1496,90.7834 35.7326,90.3874 C36.3456,89.9694 36.7596,89.2654 36.9346,88.3494 C37.0456,87.7594 36.9686,86.7814 36.7616,86.1174 L36.7286,86.0144 Z M27.8996,95.4594 C27.1616,96.5944 26.5256,97.5754 25.5606,97.5054 C25.2566,97.4834 24.9866,97.3464 24.7806,97.1104 C24.4676,96.7484 24.3156,96.1694 24.3626,95.5234 C24.4366,94.4874 24.9396,93.5284 25.8566,92.6714 L26.1606,92.3874 L23.5676,92.2014 L23.5086,92.2774 C22.8336,93.1664 22.4376,94.1834 22.3636,95.2234 C22.2666,96.5624 22.5816,97.6944 23.2746,98.4954 C23.8576,99.1684 24.6796,99.5604 25.6526,99.6314 C27.6286,99.7734 28.7616,98.1384 29.7606,96.6974 C30.5916,95.4964 31.3766,94.3604 32.4996,94.4414 C33.0516,94.4834 33.8886,95.0744 33.7876,96.4924 C33.6996,97.7204 32.9986,98.8174 31.7626,99.6684 L31.3346,99.9614 L34.1756,100.1674 C35.2346,99.0424 35.7066,97.8724 35.8116,96.4244 C35.8926,95.3174 35.5746,94.2894 34.9166,93.5284 C34.3036,92.8194 33.4266,92.3914 32.4456,92.3204 C30.0516,92.1464 28.9086,93.9074 27.8996,95.4594 Z M32.6416,75.7224 C32.3496,75.5994 29.6116,74.4694 29.3196,74.3494 C29.4376,74.0654 30.0946,72.4754 30.0946,72.4754 C30.7996,70.7704 32.0176,71.0584 32.5086,71.2604 C32.9936,71.4594 33.3246,71.7704 33.4946,72.1804 C33.5796,72.3844 33.6216,72.6094 33.6216,72.8524 C33.6216,73.1804 33.5426,73.5414 33.3866,73.9184 C33.3866,73.9184 32.7586,75.4404 32.6416,75.7224 Z M35.7056,72.4854 C35.7056,71.9644 35.6156,71.4824 35.4346,71.0464 C35.0846,70.2004 34.3996,69.5484 33.4576,69.1574 C32.4516,68.7434 31.4546,68.7154 30.5726,69.0834 C29.5786,69.4954 28.7676,70.4024 28.2296,71.7054 L26.5986,75.6574 L38.7636,80.6834 L39.6206,78.6064 C39.6206,78.6064 34.8186,76.6214 34.5036,76.4924 C34.6186,76.2134 35.1836,74.8494 35.1836,74.8494 C35.5316,74.0074 35.7056,73.2094 35.7056,72.4854 Z M85.5286,35.4234 C84.4256,36.7234 83.0586,37.6744 81.6786,38.1054 C78.7536,39.0124 76.2306,37.8284 75.3996,35.1554 C74.5886,32.5454 76.0256,30.0234 78.8176,29.1564 C80.2216,28.7194 81.6436,28.7004 83.4296,29.0934 L83.7356,29.1604 L83.0216,26.8624 L82.9006,26.8524 C80.9426,26.6784 79.5456,26.7814 78.2246,27.1884 C76.1806,27.8244 74.5626,29.1074 73.6706,30.8054 C72.8456,32.3744 72.6966,34.2174 73.2496,36.0004 C73.7296,37.5494 74.9246,38.9514 76.4456,39.7514 C78.1096,40.6264 80.0726,40.7524 82.1206,40.1164 C84.3016,39.4384 85.5036,38.4584 86.3916,37.5884 L86.4716,37.5124 L85.7436,35.1714 L85.5286,35.4234 Z M39.7026,55.9614 C39.1826,55.5764 38.4376,55.6914 38.0426,56.2234 L37.8156,57.1204 L38.2676,57.8884 C38.7896,58.2724 39.5356,58.1574 39.9306,57.6284 C40.3246,57.0994 40.2236,56.3514 39.7026,55.9614 Z M126.8446,30.6424 C127.0506,30.0264 126.7106,29.3544 126.0866,29.1424 C125.4556,28.9294 124.7776,29.2584 124.5676,29.8734 C124.3616,30.4864 124.7026,31.1594 125.3276,31.3714 C125.9536,31.5834 126.6386,31.2544 126.8446,30.6424 Z M57.3806,42.4004 L58.2926,41.7634 L57.1196,39.2614 L55.7406,37.2864 L55.5906,37.3914 L54.0566,38.4634 L55.4296,40.4254 L57.3806,42.4004 Z M45.8626,48.9154 L45.0306,48.5964 L44.1826,48.9694 L43.8466,49.8354 L44.2036,50.6504 C44.6696,51.0964 45.4236,51.0724 45.8816,50.5984 C46.3396,50.1194 46.3306,49.3654 45.8626,48.9154 Z M36.9596,63.8494 C36.6516,64.3664 36.4946,64.9714 36.4946,65.5904 C36.4946,65.8944 36.5796,66.1974 36.6576,66.4994 C36.1186,66.1804 32.1056,63.7834 32.1056,63.7834 L31.0426,65.5674 L42.3466,72.3064 L43.4116,70.5244 L38.0636,67.3364 C37.8166,66.3424 37.8266,65.7124 38.1796,65.1154 C38.6576,64.3164 39.5676,64.1854 40.5546,64.7734 L45.1906,67.5394 L46.2546,65.7574 L41.6646,63.0214 C40.6376,62.4094 39.6366,62.2024 38.7726,62.4214 C38.0316,62.6074 37.4046,63.1034 36.9596,63.8494 Z M47.3286,50.8134 L46.0176,52.1784 L52.3646,58.2614 L53.8016,56.7634 L47.4556,50.6814 L47.3286,50.8134 Z M55.1536,52.6484 C54.9866,52.4514 52.1956,49.1714 51.9806,48.9214 C52.1966,48.7364 53.0236,48.0324 53.0236,48.0324 C53.6796,47.4704 54.3286,47.2124 54.9526,47.2634 C55.5656,47.3114 56.1496,47.6554 56.6896,48.2894 C57.1506,48.8294 57.3776,49.4504 57.3776,50.0564 C57.3776,50.7654 57.0686,51.4534 56.4606,51.9724 C56.1006,52.2774 55.6416,52.4984 55.1536,52.6484 Z M58.3126,46.9354 C56.4456,44.7474 54.0546,44.7024 51.5796,46.8104 L49.1896,48.8464 L57.6886,58.8224 L59.2696,57.4774 C59.2696,57.4774 56.6246,54.3734 56.3636,54.0674 C56.9116,53.8574 57.3756,53.6424 57.7566,53.3174 C58.8696,52.3684 59.4386,51.1234 59.4386,49.8644 C59.4386,48.8464 59.0666,47.8214 58.3126,46.9354 Z M63.0986,41.1884 L63.0526,40.8314 C63.1126,40.6054 63.3136,40.3814 63.6226,40.2024 C64.2116,39.8554 65.1226,39.6814 66.1216,39.7234 L66.4556,39.7374 L65.3966,37.9294 L65.2856,37.9354 C64.2466,37.9874 63.3886,38.2184 62.6646,38.6434 C61.0566,39.5874 60.5356,40.9914 61.3056,42.3054 C62.0286,43.5384 63.6826,43.5014 65.0096,43.4734 C65.8506,43.4544 66.6426,43.4374 66.8356,43.7634 C67.1006,44.2184 66.7236,44.6924 66.2826,44.9844 C65.6756,45.3414 64.6206,45.5044 63.3976,45.4274 L63.0556,45.4074 L64.1966,47.3544 L64.3086,47.3474 C65.5666,47.2694 66.4246,47.0224 67.3646,46.4714 C68.9006,45.5704 69.4206,43.9974 68.6286,42.6454 C68.1166,41.7684 67.1706,41.5634 65.6106,41.4984 C64.4036,41.5124 63.2736,41.4834 63.0986,41.1884 Z M41.3906,57.6634 L40.2626,59.1804 L47.3096,64.4324 L48.5506,62.7694 L41.4996,57.5164 L41.3906,57.6634 Z M40.9166,51.3204 L39.6946,52.7654 L49.7416,61.2694 L51.0826,59.6864 L41.0336,51.1804 L40.9166,51.3204 Z" id="ArchText" fill="#FFFFFF"></path>
        <path d="M118.3501,84.8461 C118.3501,84.8461 92.9541,90.1591 92.9151,90.1681 C92.9841,90.2301 93.1161,90.3501 93.1161,90.3501 L99.6451,96.0951 L98.6621,96.3821 C96.9301,96.8881 95.3621,97.2461 93.8681,97.4731 C88.5251,98.2921 83.1921,95.7931 79.6601,93.5531 C77.6611,92.2891 76.0111,90.9691 74.9781,90.0841 L73.6681,88.9061 L73.3221,88.5731 C73.3221,88.5731 73.0991,88.3471 73.0751,88.3231 C73.0801,88.3541 74.8741,100.0741 74.8741,100.0741 L70.4261,107.3331 L70.2531,107.4051 C63.1841,110.3041 60.4971,115.3101 60.4721,115.3601 C60.4721,115.3601 60.4511,115.4031 60.4411,115.4201 C60.4801,115.4841 60.5211,115.5541 60.5211,115.5541 C63.1221,119.4881 66.5041,123.1461 69.7981,125.5901 C70.5951,126.1791 71.4521,126.7151 72.4151,127.2281 L73.0231,127.5521 L72.5861,128.0841 C71.4651,129.4521 70.8471,131.1801 70.8451,132.9501 C70.8471,137.1881 74.2951,140.6381 78.5311,140.6401 L80.2171,140.4901 L80.4061,140.8921 C81.5061,143.9221 84.4061,145.9581 87.6231,145.9591 C91.8591,145.9571 95.3081,142.5101 95.3091,138.2731 C95.3091,137.0011 94.9911,135.7391 94.3891,134.6251 L94.0301,133.9601 L100.9231,132.5171 L100.6211,133.4441 C100.3661,134.2211 100.2381,135.0231 100.2381,135.8281 C100.2401,140.0661 103.6891,143.5161 107.9281,143.5181 C112.1631,143.5161 115.6111,140.0661 115.6131,135.8281 L115.6131,135.0221 L116.3671,135.2631 C117.2231,135.5731 118.1031,135.7311 118.9871,135.7321 C120.3211,135.7311 121.6421,135.3771 122.8041,134.7081 L123.1211,134.5261 L123.4161,134.7391 C124.7331,135.6881 126.2831,136.1911 127.8971,136.1921 C132.1321,136.1891 135.5821,132.7411 135.5841,128.5051 C135.5841,125.8911 134.2671,123.4801 132.0641,122.0541 L131.8501,121.9171 L131.5531,119.9741 L135.9941,112.7361 L136.1661,112.6631 C137.4531,112.1371 138.6591,111.5181 139.7541,110.8241 C144.1081,108.0741 145.8951,104.8041 145.9691,104.6671 C145.9691,104.6671 145.9861,104.6351 145.9901,104.6251 C145.9531,104.5601 145.9121,104.4921 145.9121,104.4921 C143.3081,100.5571 139.9251,96.9011 136.6311,94.4601 C132.6431,91.5121 127.5361,89.9761 121.8661,90.0201 L121.5471,90.0231 C121.5471,90.0231 118.3941,84.8441 118.3911,84.8381 C118.3851,84.8391 118.3501,84.8461 118.3501,84.8461" id="FishBackground" fill="#FFFFFF"></path>
        <path d="M134.7275,102.827 C134.0335,103.519 133.0835,103.946 132.0255,103.946 C130.9685,103.946 130.0185,103.519 129.3255,102.827 C128.6335,102.135 128.2065,101.183 128.2065,100.127 C128.2065,99.07 128.6315,98.12 129.3255,97.428 C130.0185,96.735 130.9685,96.308 132.0255,96.308 C133.0835,96.308 134.0335,96.735 134.7275,97.427 C135.4185,98.12 135.8445,99.07 135.8445,100.127 C135.8445,101.183 135.4185,102.135 134.7275,102.827 L134.7275,102.827 Z M132.0255,95.061 C129.2265,95.063 126.9605,97.328 126.9585,100.127 C126.9605,102.927 129.2265,105.191 132.0255,105.193 C134.8285,105.191 137.0895,102.927 137.0915,100.127 C137.0895,97.328 134.8265,95.063 132.0255,95.061 L132.0255,95.061 Z M89.4775,135.456 L89.5365,135.318 L89.7735,134.758 L89.8305,134.62 L90.0665,134.058 L90.1245,133.922 L90.1265,133.918 L88.9775,133.433 L88.6405,134.232 L88.5825,134.37 L88.4915,134.586 L88.4215,134.753 L88.3455,134.931 L88.2875,135.068 L88.1145,135.481 L88.0515,135.63 L87.9945,135.766 L87.2935,137.425 L85.8095,136.799 L85.2355,136.556 L84.6545,136.312 L83.2975,135.74 L82.8135,136.89 L83.9415,137.364 L85.1235,137.863 L86.8095,138.573 L85.1245,142.562 L86.2745,143.047 L87.9575,139.057 L91.9485,140.74 L92.4325,139.591 L88.4425,137.909 L89.4775,135.456 Z M120.3005,127.889 L119.8045,127.68 L121.2425,124.273 L121.2735,124.197 L121.4845,123.698 L121.4905,123.684 L121.2615,123.588 L120.9155,123.442 L120.3405,123.2 L120.3085,123.278 L120.0985,123.774 L120.0645,123.854 L118.6545,127.194 L114.6615,125.508 L114.1775,126.655 L118.1715,128.342 L116.4845,132.333 L117.6345,132.817 L119.3195,128.827 L119.6725,128.976 L120.3105,129.246 L120.9835,129.53 L123.3105,130.514 L123.7965,129.365 L120.9125,128.146 L120.3005,127.889 Z M110.4285,131.471 L109.8545,131.228 L109.7925,131.203 L109.5925,131.119 L109.2805,130.986 L109.1885,131.203 L109.1305,131.343 L107.5945,134.981 L103.6005,133.297 L103.1145,134.445 L107.1105,136.131 L105.4245,140.125 L106.5745,140.609 L108.2585,136.616 L112.2525,138.301 L112.7375,137.152 L108.7445,135.467 L110.4285,131.471 Z M132.2045,98.527 C131.3215,98.527 130.6075,99.242 130.6075,100.127 C130.6075,101.01 131.3215,101.726 132.2045,101.726 C133.0875,101.726 133.8005,101.01 133.8005,100.127 C133.8005,99.242 133.0875,98.527 132.2045,98.527 L132.2045,98.527 Z M145.0515,104.828 C144.8325,105.165 144.4905,105.648 144.0105,106.22 C143.0545,107.359 141.5535,108.848 139.3915,110.214 C138.7715,110.604 138.0805,110.978 137.3495,111.338 C136.8215,111.598 136.2635,111.847 135.6735,112.081 C134.8075,112.425 133.8705,112.731 132.8645,112.998 C131.4165,113.381 129.8245,113.667 128.0705,113.82 C127.1655,113.899 126.2325,113.955 125.2395,113.956 C125.1695,113.953 125.0965,113.947 125.0245,113.944 C125.0185,113.944 125.0105,113.943 125.0025,113.943 C125.0025,113.943 125.0005,113.943 125.0005,113.942 C122.8295,113.836 120.2595,113.519 117.0795,112.901 C117.0305,112.789 116.9845,112.678 116.9375,112.566 C113.7495,104.93 114.7795,99.598 116.5955,96.085 C117.5455,94.262 118.7205,92.931 119.6575,92.059 C119.9655,91.771 120.2295,91.552 120.4695,91.363 C120.5915,91.267 120.7195,91.165 120.8165,91.094 C120.9605,90.989 121.0735,90.912 121.1485,90.863 L121.2325,90.809 L121.2445,90.827 L121.3195,90.781 C126.6405,90.627 132.0335,91.938 136.2855,95.09 C139.5935,97.54 142.7615,101.073 145.1095,104.537 C145.1315,104.569 145.1545,104.601 145.1765,104.633 C145.1415,104.691 145.1005,104.755 145.0515,104.828 L145.0515,104.828 Z M133.5795,115.361 C132.6235,116.931 131.5375,118.698 131.0015,119.527 C130.9915,119.544 130.9765,119.566 130.9665,119.582 L130.8365,119.781 L130.8535,119.897 L130.8735,120.016 L130.9975,120.832 C130.9855,120.826 130.9725,120.822 130.9585,120.817 C130.0105,120.438 128.9795,120.223 127.8955,120.223 C126.4035,120.224 125.0085,120.626 123.8005,121.319 C122.4445,120.342 120.7855,119.758 118.9865,119.757 C116.9995,119.758 115.1795,120.461 113.7575,121.63 C113.7065,121.672 113.6585,121.719 113.6075,121.762 C113.2275,121.788 112.8445,121.81 112.4615,121.866 C112.4485,121.868 112.4335,121.871 112.4195,121.873 C110.4825,122.172 108.6095,122.646 106.7745,123.214 C106.7585,123.184 106.7415,123.145 106.7275,123.114 C106.6535,122.958 106.5705,122.776 106.4775,122.548 C106.4735,122.54 106.4715,122.535 106.4695,122.527 C106.1875,121.836 105.8575,120.852 105.6685,119.708 C105.3275,117.627 105.4455,115.062 107.0715,112.611 C107.2075,112.405 107.3515,112.2 107.5105,111.996 C109.8885,112.59 112.3025,113.163 114.6235,113.667 C114.6295,113.668 114.6355,113.67 114.6415,113.672 C115.4145,113.899 116.0285,114.082 116.4485,114.208 C116.6575,114.271 116.8215,114.319 116.9295,114.352 L117.0525,114.39 L117.0855,114.399 L117.0935,114.402 L117.1595,114.187 L117.1615,114.187 L117.0955,114.402 L117.1275,114.412 L117.1615,114.419 C120.1115,114.977 122.7925,115.208 125.2365,115.203 C129.2145,115.361 131.9345,114.811 134.2905,113.987 C134.3425,113.97 134.3965,113.953 134.4475,113.934 C134.1855,114.366 133.8925,114.85 133.5795,115.361 L133.5795,115.361 Z M132.6005,123.294 L132.6445,123.335 C132.7125,123.397 132.7845,123.456 132.8495,123.52 C134.1175,124.79 134.9005,126.536 134.9005,128.472 C134.9005,129.742 134.5585,130.927 133.9675,131.954 L133.9325,132.01 C133.8085,132.222 133.6745,132.426 133.5285,132.622 C133.5205,132.633 133.5135,132.642 133.5055,132.652 C133.3035,132.924 133.0875,133.184 132.8495,133.424 C131.5785,134.692 129.8315,135.475 127.8955,135.475 C126.5335,135.475 125.2695,135.08 124.1925,134.407 C124.7325,133.966 125.2105,133.455 125.6245,132.892 L125.9725,133.04 L126.5475,133.282 L128.2315,129.289 L131.3805,130.617 L131.5165,130.674 L132.2255,130.973 L132.3595,130.652 L132.3785,130.609 L132.4365,130.47 L132.4665,130.398 L132.6335,130.005 L132.7085,129.824 L132.3555,129.675 L132.3125,129.656 L132.1805,129.6 L132.0375,129.54 L130.2225,128.775 L130.0435,128.699 L128.7175,128.139 L128.8565,127.806 L128.8805,127.752 L129.1075,127.214 L129.1305,127.159 L130.3995,124.148 L129.2515,123.664 L128.0855,126.429 L128.0625,126.483 L127.8365,127.017 L127.8115,127.074 L127.5885,127.606 L127.5665,127.655 L127.5225,127.636 L127.2115,127.505 C127.2095,127.479 127.2095,127.453 127.2075,127.428 C127.2065,127.402 127.2065,127.376 127.2045,127.35 C127.1845,127.099 127.1515,126.853 127.1085,126.609 C127.1045,126.582 127.1025,126.554 127.0975,126.526 C127.0485,126.259 126.9865,125.996 126.9125,125.738 C126.9045,125.71 126.8985,125.68 126.8915,125.65 C126.4945,124.326 125.7805,123.139 124.8285,122.185 C125.7565,121.732 126.7935,121.471 127.8955,121.471 C129.0865,121.471 130.2035,121.768 131.1845,122.291 C131.1975,122.298 131.2115,122.304 131.2255,122.31 C131.4525,122.433 131.6695,122.57 131.8795,122.717 C131.8945,122.727 131.9085,122.739 131.9245,122.749 C132.1615,122.916 132.3845,123.099 132.6005,123.294 L132.6005,123.294 Z M123.1655,133.621 C122.9925,133.749 122.8155,133.869 122.6335,133.98 C122.4465,134.096 122.2565,134.201 122.0585,134.298 C121.1295,134.753 120.0905,135.015 118.9865,135.015 C117.9325,135.015 116.9375,134.776 116.0415,134.359 C115.7955,134.243 115.5545,134.114 115.3235,133.971 C115.0315,133.791 114.7525,133.596 114.4925,133.377 C114.3345,133.244 114.1815,133.107 114.0355,132.962 C113.3765,132.303 112.8545,131.513 112.4985,130.637 C112.4835,130.598 112.4715,130.557 112.4565,130.519 C112.4445,130.49 112.4355,130.461 112.4235,130.431 C112.3765,130.304 112.3285,130.177 112.2875,130.045 C112.2755,130.006 112.2675,129.964 112.2565,129.925 C112.2275,129.819 112.1995,129.713 112.1745,129.604 C112.1615,129.549 112.1435,129.493 112.1315,129.436 C112.1235,129.397 112.1185,129.357 112.1125,129.318 C112.0755,129.126 112.0425,128.931 112.0225,128.734 C112.0205,128.71 112.0195,128.686 112.0175,128.663 L112.0175,128.639 C111.9985,128.43 111.9845,128.221 111.9845,128.007 C111.9845,127.948 111.9925,127.889 111.9935,127.831 L111.9935,127.816 C112.0445,125.962 112.8095,124.286 114.0355,123.057 C114.0685,123.024 114.1055,122.996 114.1385,122.963 C114.1815,122.923 114.2265,122.884 114.2705,122.845 C114.4685,122.662 114.6785,122.49 114.8975,122.332 C114.9465,122.297 114.9915,122.259 115.0395,122.225 C115.2945,122.052 115.5625,121.898 115.8385,121.76 C115.9005,121.727 115.9645,121.698 116.0265,121.668 C116.9255,121.246 117.9265,121.005 118.9865,121.004 C120.3505,121.005 121.6175,121.4 122.6935,122.075 C122.8795,122.191 123.0585,122.316 123.2335,122.449 C123.4025,122.579 123.5655,122.716 123.7225,122.861 C123.7945,122.927 123.8705,122.988 123.9385,123.057 C124.3965,123.516 124.7905,124.04 125.1075,124.611 C125.1315,124.651 125.1525,124.691 125.1735,124.732 C125.3175,125.003 125.4395,125.286 125.5465,125.576 L125.5835,125.676 C125.6735,125.93 125.7505,126.188 125.8105,126.455 C125.8185,126.485 125.8285,126.514 125.8345,126.546 C125.8635,126.68 125.8805,126.816 125.9025,126.953 C125.9375,127.184 125.9605,127.42 125.9725,127.659 C125.9775,127.775 125.9895,127.889 125.9895,128.007 C125.9895,128.118 125.9775,128.226 125.9745,128.336 C125.8905,130.139 125.1355,131.764 123.9385,132.962 C123.6995,133.202 123.4375,133.418 123.1655,133.621 L123.1655,133.621 Z M112.8775,140.749 C111.6095,142.017 109.8625,142.801 107.9285,142.802 C105.9915,142.801 104.2435,142.017 102.9725,140.749 C101.7045,139.478 100.9215,137.729 100.9215,135.794 C100.9215,134.772 101.1445,133.806 101.5375,132.931 C101.5585,132.884 101.5835,132.838 101.6055,132.792 C101.7005,132.595 101.8015,132.402 101.9145,132.216 C101.9435,132.168 101.9725,132.119 102.0015,132.072 C102.1315,131.864 102.2715,131.664 102.4225,131.473 C102.4615,131.423 102.4985,131.371 102.5395,131.322 C102.6755,131.157 102.8215,130.998 102.9725,130.846 C104.2435,129.577 105.9915,128.793 107.9285,128.793 C108.9825,128.793 109.9755,129.032 110.8715,129.449 C110.8785,129.49 110.8825,129.533 110.8905,129.574 C110.8985,129.614 110.9045,129.655 110.9125,129.695 C110.9465,129.859 110.9935,130.019 111.0365,130.18 C111.0475,130.22 111.0555,130.261 111.0675,130.3 C111.1135,130.462 111.1685,130.62 111.2245,130.777 C111.2385,130.816 111.2535,130.855 111.2675,130.894 C111.9455,132.709 113.2395,134.219 114.8975,135.17 C114.9155,135.376 114.9295,135.583 114.9295,135.794 C114.9295,137.729 114.1455,139.478 112.8775,140.749 L112.8775,140.749 Z M107.8705,124.186 C109.3365,123.756 110.8185,123.397 112.3285,123.154 C111.5585,124.208 111.0365,125.449 110.8355,126.798 L107.8705,124.186 Z M100.6885,131.836 L94.1485,133.205 C94.1205,133.169 94.0955,133.132 94.0685,133.096 C92.8895,131.622 91.2185,130.557 89.3005,130.161 C88.7595,130.05 88.1975,129.99 87.6235,129.99 C87.2775,129.99 86.9385,130.018 86.6045,130.059 C86.6945,129.994 86.7915,129.92 86.9025,129.833 C87.1375,129.648 87.4165,129.412 87.7245,129.128 C87.8485,129.014 87.9755,128.891 88.1065,128.761 C89.0635,127.813 90.2045,126.437 91.1405,124.579 C93.0285,120.847 93.9945,115.178 90.8905,107.495 C91.1265,107.546 91.3675,107.6 91.6035,107.651 C94.7155,108.565 100.2765,110.159 106.2165,111.67 C102.8795,116.454 104.6765,121.615 105.5275,123.489 C105.5465,123.53 105.5615,123.56 105.5795,123.598 C105.1655,123.736 104.7555,123.877 104.3465,124.02 C103.9865,124.146 103.6295,124.274 103.2735,124.404 C103.2565,124.41 103.2385,124.417 103.2215,124.423 C103.2195,124.424 103.2175,124.425 103.2155,124.425 C101.5605,125.028 99.9225,125.663 98.2875,126.27 L103.3965,125.02 L103.4195,125.014 L103.4365,125.012 L106.1625,124.344 L106.2865,124.453 L106.3735,124.53 L106.4735,124.618 L106.6215,124.747 L110.1565,127.86 C110.1215,127.85 110.0845,127.842 110.0475,127.832 C109.3695,127.652 108.6625,127.547 107.9285,127.546 C104.8645,127.548 102.1995,129.218 100.7755,131.692 C100.7465,131.74 100.7135,131.787 100.6885,131.836 L100.6885,131.836 Z M92.5765,143.191 C91.3075,144.46 89.5595,145.242 87.6235,145.242 C85.6875,145.242 83.9405,144.46 82.6715,143.191 C81.9865,142.506 81.4495,141.677 81.0965,140.759 C81.0205,140.565 80.9545,140.369 80.8955,140.168 C80.8395,139.968 80.7895,139.765 80.7495,139.558 C80.6685,139.132 80.6225,138.692 80.6225,138.24 C80.6225,137.008 80.9405,135.854 81.4985,134.85 C81.5995,134.666 81.7075,134.486 81.8265,134.312 C81.9465,134.136 82.0755,133.964 82.2105,133.798 C82.3565,133.621 82.5105,133.45 82.6715,133.288 C83.3915,132.569 84.2665,132.014 85.2395,131.661 C85.2435,131.66 85.2475,131.659 85.2495,131.657 C85.3025,131.639 85.3535,131.618 85.4065,131.6 C85.5545,131.552 85.7035,131.511 85.8525,131.471 C85.8565,131.47 85.8615,131.469 85.8655,131.468 C85.9135,131.456 85.9615,131.442 86.0105,131.431 C86.1715,131.392 86.3345,131.361 86.5005,131.335 C86.5045,131.334 86.5075,131.334 86.5115,131.333 C86.5485,131.327 86.5855,131.321 86.6225,131.316 C86.9505,131.269 87.2835,131.237 87.6235,131.237 C89.5595,131.237 91.3075,132.019 92.5765,133.288 C92.6095,133.32 92.6365,133.356 92.6685,133.389 C92.7005,133.424 92.7315,133.46 92.7645,133.495 C92.8935,133.635 93.0175,133.778 93.1355,133.929 C93.1635,133.964 93.1885,134.001 93.2155,134.037 C93.3255,134.181 93.4295,134.329 93.5285,134.483 C93.5515,134.519 93.5725,134.556 93.5955,134.595 C94.2455,135.657 94.6265,136.901 94.6265,138.24 C94.6265,140.176 93.8445,141.922 92.5765,143.191 L92.5765,143.191 Z M79.3745,138.24 C79.3745,138.79 79.4315,139.325 79.5335,139.844 C79.2055,139.89 78.8725,139.924 78.5295,139.924 C76.5955,139.924 74.8495,139.14 73.5795,137.871 C72.3115,136.6 71.5295,134.852 71.5295,132.916 C71.5295,131.13 72.2035,129.507 73.3065,128.268 C73.3285,128.244 73.3495,128.222 73.3705,128.198 C73.4405,128.122 73.5065,128.041 73.5795,127.968 C73.6405,127.906 73.7085,127.852 73.7715,127.793 C73.7955,127.77 73.8215,127.747 73.8465,127.724 C73.9945,127.593 74.1455,127.467 74.3035,127.347 C74.3315,127.324 74.3625,127.302 74.3925,127.279 C75.5525,126.426 76.9775,125.915 78.5295,125.915 C80.4655,125.915 82.2125,126.699 83.4835,127.968 C83.8545,128.339 84.1765,128.755 84.4575,129.2 C84.4825,129.24 84.5075,129.281 84.5325,129.322 C84.5865,129.415 84.6465,129.504 84.6975,129.599 C84.7385,129.674 84.7715,129.752 84.8085,129.828 C84.8125,129.838 84.8175,129.847 84.8215,129.856 C84.8365,129.886 84.8515,129.915 84.8645,129.944 L84.8705,129.956 C84.9385,130.102 85.0025,130.25 85.0605,130.401 C84.9055,130.452 84.7545,130.509 84.6045,130.568 C84.6005,130.569 84.5945,130.571 84.5905,130.573 C84.5865,130.574 84.5825,130.575 84.5815,130.577 C83.1575,131.142 81.9335,132.092 81.0285,133.299 L79.3465,132.589 L80.3165,130.292 L80.3615,130.183 L80.5675,129.698 L80.6125,129.593 L80.8185,129.104 L80.8605,129.002 L81.0335,128.594 L79.8855,128.108 L79.5945,128.8 L79.5475,128.91 L79.3435,129.391 L79.2995,129.497 L79.0955,129.982 L79.0515,130.084 L78.1985,132.103 L74.2085,130.418 L73.7235,131.565 L77.7135,133.252 L76.0275,137.245 L77.1755,137.729 L78.8625,133.736 L80.3445,134.362 C79.7265,135.518 79.3745,136.838 79.3745,138.24 L79.3745,138.24 Z M70.2055,125.008 L70.2045,125.008 C70.1755,124.985 70.1445,124.96 70.1145,124.937 C66.8065,122.467 63.6425,118.925 61.3095,115.461 C61.3135,115.456 61.3175,115.448 61.3215,115.442 C61.3545,115.389 61.3905,115.333 61.4335,115.265 C61.6545,114.93 61.9975,114.446 62.4755,113.876 C63.4325,112.736 64.9325,111.248 67.0945,109.883 C70.2605,107.888 74.8455,106.145 81.2675,106.138 C83.4815,106.234 86.1225,106.555 89.4065,107.194 C89.4545,107.306 89.5015,107.418 89.5475,107.53 C92.7455,115.169 91.7795,120.507 90.0265,124.02 C89.1105,125.843 87.9685,127.173 87.0595,128.045 C86.6245,128.46 86.2515,128.764 85.9745,128.973 C85.9615,128.983 85.9425,129 85.9315,129.009 C85.8875,129.041 85.8675,129.054 85.8305,129.081 C84.4485,126.46 81.7015,124.67 78.5295,124.668 C76.4575,124.669 74.5715,125.439 73.1225,126.7 C73.1005,126.72 73.0795,126.74 73.0565,126.76 C72.0635,126.253 71.1065,125.676 70.2055,125.008 L70.2055,125.008 Z M72.0615,106.12 C72.0825,106.084 72.1075,106.043 72.1315,106.006 C72.3705,105.613 72.6285,105.186 72.9065,104.733 C73.8815,103.133 74.9935,101.321 75.5175,100.512 L75.6455,100.312 L75.6105,100.079 L74.1085,90.256 C77.2415,93.042 85.4635,99.464 94.0305,98.227 C95.9365,97.936 97.7825,97.472 99.5905,96.917 L99.6605,97.046 C99.7465,97.211 99.8645,97.457 99.9955,97.761 C100.0025,97.781 100.0105,97.795 100.0185,97.815 C100.2995,98.479 100.6275,99.427 100.8185,100.535 C101.1565,102.549 101.0415,105.049 99.4145,107.49 C99.2785,107.694 99.1365,107.898 98.9785,108.101 C96.6045,107.508 94.1945,106.935 91.8765,106.432 C91.8655,106.429 91.8535,106.426 91.8425,106.422 C91.0685,106.195 90.4555,106.012 90.0355,105.886 C89.8245,105.822 89.6635,105.773 89.5535,105.741 L89.4315,105.703 L89.3975,105.693 L89.3905,105.69 L89.3245,105.907 L89.3225,105.906 L89.3885,105.69 L89.3555,105.681 L89.3225,105.675 C86.4325,105.128 83.8035,104.898 81.4005,104.893 L81.3985,104.893 L81.3755,104.893 C81.3425,104.893 81.3075,104.89 81.2745,104.89 C80.2485,104.849 79.3075,104.855 78.4325,104.9 C76.2105,105.015 74.4315,105.385 72.8415,105.89 C72.5695,105.975 72.3005,106.064 72.0385,106.158 C72.0455,106.146 72.0535,106.133 72.0615,106.12 L72.0615,106.12 Z M94.5035,90.627 L94.6065,90.604 L118.1125,85.684 L120.4805,89.574 L120.5835,89.744 C120.5055,89.793 120.2495,89.957 119.8845,90.235 C119.6435,90.419 119.3555,90.65 119.0335,90.938 C118.9225,91.038 118.8065,91.145 118.6875,91.259 C117.6935,92.205 116.4845,93.605 115.4905,95.509 C113.5345,99.241 112.5005,104.914 115.5955,112.6 C115.3665,112.552 115.1285,112.498 114.8975,112.448 C111.7915,111.535 106.2225,109.941 100.2705,108.427 C103.8375,103.337 101.5335,97.979 100.7955,96.533 C103.3105,95.703 105.7665,94.729 108.2215,93.818 L103.0895,95.072 L103.0465,95.083 L103.0195,95.09 L103.0075,95.093 L101.8055,95.387 L100.3235,95.749 L100.2125,95.65 L100.0275,95.487 L100.0145,95.477 L99.8955,95.372 L99.6685,95.173 L94.5035,90.627 Z M146.5745,104.474 L146.5865,104.455 L146.3825,104.147 C143.9335,100.446 140.5665,96.64 136.9665,93.973 C132.6075,90.751 127.2045,89.382 121.8615,89.423 L118.8955,84.547 L118.6665,84.17 L118.2355,84.261 L92.9685,89.547 L91.7065,89.811 L91.8285,89.912 L91.8095,89.916 L92.7445,90.739 L98.5025,95.807 C96.9535,96.262 95.3855,96.639 93.7825,96.883 C88.8405,97.64 83.7785,95.464 79.9615,93.043 C78.0545,91.837 76.4585,90.577 75.3455,89.623 C74.7885,89.145 74.3515,88.744 74.0555,88.463 C73.9065,88.324 73.7935,88.213 73.7185,88.139 L73.6085,88.028 L72.2515,86.637 L72.5455,88.557 L74.2855,99.923 C73.1995,101.622 70.5095,106.072 70.0395,106.85 C62.7605,109.836 59.9905,115.015 59.9655,115.083 L59.7935,115.409 L59.8575,115.506 L59.8475,115.523 L60.0505,115.831 C62.4995,119.536 65.8665,123.343 69.4635,126.009 L69.4635,126.01 C70.3205,126.643 71.2215,127.198 72.1505,127.693 C70.9835,129.116 70.2835,130.934 70.2825,132.916 C70.2835,137.473 73.9715,141.169 78.5295,141.171 C78.9905,141.171 79.4365,141.124 79.8755,141.051 C81.0265,144.221 84.0545,146.488 87.6235,146.49 C92.1845,146.488 95.8735,142.797 95.8745,138.24 C95.8735,136.822 95.5155,135.489 94.8865,134.324 L100.0845,133.236 C99.8225,134.042 99.6745,134.9 99.6745,135.794 C99.6765,140.352 103.3675,144.047 107.9285,144.049 C112.4855,144.047 116.1745,140.352 116.1765,135.794 C116.1765,135.782 116.1745,135.77 116.1745,135.759 C117.0525,136.078 117.9965,136.262 118.9865,136.263 C120.4805,136.262 121.8775,135.858 123.0855,135.163 C124.4415,136.14 126.0985,136.722 127.8955,136.723 C132.4545,136.72 136.1455,133.029 136.1475,128.472 C136.1475,125.564 134.6405,123.016 132.3695,121.548 L132.1415,120.059 C133.2215,118.373 135.8835,113.974 136.3805,113.151 C137.7615,112.586 138.9895,111.943 140.0575,111.267 C144.6345,108.374 146.4335,104.959 146.4675,104.896 L146.6385,104.57 L146.5745,104.474 Z M75.8835,119.971 C75.8835,119.088 75.1655,118.371 74.2855,118.371 C73.4015,118.371 72.6865,119.088 72.6865,119.971 C72.6865,120.853 73.4015,121.567 74.2855,121.567 C75.1655,121.567 75.8835,120.853 75.8835,119.971 L75.8835,119.971 Z M70.6425,119.971 C70.6425,118.914 71.0685,117.962 71.7605,117.268 C72.4535,116.577 73.4055,116.15 74.4625,116.15 C75.5185,116.15 76.4685,116.577 77.1625,117.268 C77.8535,117.962 78.2805,118.914 78.2805,119.971 C78.2805,121.026 77.8535,121.977 77.1625,122.671 C76.4685,123.363 75.5185,123.789 74.4625,123.789 C73.4055,123.789 72.4535,123.363 71.7605,122.671 C71.0685,121.977 70.6425,121.026 70.6425,119.971 L70.6425,119.971 Z M79.5275,119.971 C79.5255,117.17 77.2615,114.905 74.4625,114.903 C71.6615,114.905 69.3965,117.17 69.3945,119.971 C69.3965,122.769 71.6615,125.034 74.4625,125.036 C77.2615,125.034 79.5255,122.769 79.5275,119.971 L79.5275,119.971 Z" id="FishOutline" fill="#000000"></path>
        <path d="M28.3496,204.0819 C28.3756,204.3209 28.4096,204.6219 28.0586,204.6219 C27.6626,204.6219 27.1416,204.1799 26.9786,203.8389 C26.6036,203.0569 26.6996,199.8599 26.8076,199.0799 C27.1136,196.9089 28.2126,190.6609 27.8566,192.6329 C27.6146,192.6329 27.3876,192.4289 27.2976,192.2499 C26.9906,191.6039 28.0166,191.4469 28.4406,191.3229 C29.6176,191.0219 31.5926,190.6419 32.9336,190.6419 C33.3536,190.6419 34.3076,190.7009 34.5586,191.2239 C34.7006,191.5249 34.6046,191.8269 34.2736,191.8269 C33.5466,191.8269 33.5126,191.7059 33.0746,191.7059 C32.6406,191.7269 31.7946,191.8479 29.4726,192.3689 C28.9426,193.6549 28.6576,195.0829 28.4926,196.5269 C30.1896,196.1649 31.6106,196.0049 32.2936,196.1459 C32.8026,196.2479 32.8236,196.4669 32.8606,196.5469 C33.3506,197.5719 32.1136,196.6879 28.2696,197.8539 C28.0566,199.5209 28.0666,201.2879 28.2186,203.0769 L28.3496,204.0819 Z M39.1886,201.8537 C39.0496,202.7957 38.6586,204.2827 37.3176,204.2827 C36.5676,204.2827 35.8956,203.6577 35.5966,203.0337 C35.0366,201.8707 35.0946,200.4257 35.3986,199.5007 C35.6586,198.7567 36.3186,197.4717 37.4196,197.4717 C38.1266,197.4717 38.5906,197.8947 38.8806,198.4967 C39.4186,199.6197 39.3456,200.8857 39.1886,201.8537 Z M38.0886,198.9557 C37.9926,198.7567 37.8066,198.5947 37.5846,198.5947 C37.0146,198.5947 36.5216,199.8217 36.3966,200.2057 C36.2256,200.7657 36.1406,201.8707 36.4756,202.5737 C36.6026,202.8347 36.8696,203.1177 37.2236,203.1177 C37.9706,203.1177 38.2226,201.9917 38.1736,201.3917 C38.0266,201.3077 37.7726,201.1877 37.7036,201.0477 C37.6356,200.9057 38.4656,199.7437 38.0886,198.9557 Z M42.8326,200.587 C42.7266,200.366 42.7596,200.206 42.8166,200.043 L42.7506,200.003 C41.8896,201.009 41.4106,202.353 41.3036,203.776 C41.2946,204.082 41.3346,204.622 40.8936,204.622 C40.6276,204.622 40.3746,204.502 40.2466,204.239 C39.9866,203.699 39.9976,201.327 40.0216,200.787 C40.0296,200.206 40.2636,198.073 41.0776,198.073 C41.2746,198.073 41.5756,198.194 41.6746,198.396 C41.9036,198.876 41.0496,199.762 41.2296,200.684 L41.2916,200.727 C41.4276,200.185 43.2456,197.771 43.8396,197.771 C44.0146,197.771 44.4036,198.073 44.4896,198.256 C44.6546,198.595 43.4636,199.419 43.7306,199.984 C43.8106,200.146 43.9896,200.242 44.1666,200.242 C44.8256,200.242 45.4696,199.38 45.7346,199.38 C45.9076,199.38 46.1186,199.542 46.1756,199.66 C46.3286,199.984 45.9056,200.384 45.7626,200.545 C45.3946,200.927 44.8426,201.288 44.1386,201.288 C43.6086,201.288 43.0926,201.127 42.8326,200.587 Z M50.6665,196.7694 C50.7775,196.2624 51.1925,193.9164 51.7655,193.9164 C51.9855,193.9164 52.3215,194.1564 52.4155,194.3574 C52.6205,194.7814 52.0885,195.7854 52.0675,196.2484 C52.5495,196.1054 53.1455,195.9244 53.6985,195.9244 C54.0485,195.9244 54.3935,196.0454 54.5665,196.4084 C54.7695,196.8284 54.3045,196.8284 53.9745,196.8674 C53.1745,196.9484 52.4805,197.2904 51.7405,197.4934 C51.4975,198.6364 51.2725,201.2494 51.8995,202.5524 C52.0335,202.8344 52.2785,203.1184 52.6555,203.1184 C53.4895,203.1184 53.7725,201.5894 53.8805,200.9494 C53.9145,200.7874 53.9605,200.6034 54.1795,200.6034 C54.3565,200.6034 54.5905,200.7274 54.6665,200.8854 C54.8105,201.1874 54.5475,202.1514 54.4635,202.3934 C54.2385,203.1184 53.8265,204.1794 52.7465,204.1794 C52.1935,204.1794 51.2445,203.7594 50.8685,202.7954 C50.3305,201.6694 50.0935,200.4844 50.3925,197.8944 C50.2565,197.9334 50.1225,197.9744 49.9685,197.9744 C49.7035,197.9744 49.2075,197.8154 49.0655,197.5114 C48.8795,197.1304 49.3045,197.0504 49.6155,197.0114 L50.6665,196.7694 Z M55.9169,194.037 C55.8549,192.067 56.3439,191.808 56.5589,191.745 C56.8669,191.745 57.2849,192.067 57.4109,192.33 C57.5839,192.691 57.3939,193.213 57.3219,193.475 L56.7179,197.454 C56.6869,198.256 56.5639,199.059 56.5619,199.881 L56.6239,199.925 C56.8299,199.38 58.0859,197.915 58.8129,197.915 C59.0329,197.915 59.3259,197.975 59.5079,198.175 C59.7009,198.396 59.8019,198.737 59.6079,199.3 C59.4169,199.86 58.9319,201.751 59.2679,202.452 C59.3569,202.636 59.5029,202.755 59.7219,202.755 C60.6469,202.755 60.6029,200.366 61.1519,200.366 C61.3939,200.366 61.8279,200.484 61.4219,202.031 C61.0889,203.356 60.4879,203.94 59.8899,204.019 C59.2769,204.121 58.6869,203.718 58.3879,203.098 C57.7919,201.853 58.2049,200.465 58.3689,199.419 C57.7009,199.822 56.4679,201.428 56.6639,204.041 C56.7119,204.745 55.9089,204.443 55.6669,203.94 C55.4639,203.518 55.4759,202.574 55.4819,202.171 L55.9169,194.037 Z M63.0528,202.1706 C63.2428,202.7956 63.8898,203.1366 64.5518,203.1366 C66.4438,203.1366 66.8238,200.8076 67.2628,200.8076 C67.4178,200.8076 67.6638,200.9496 67.7048,201.0886 C67.9758,201.7896 66.3578,204.2396 64.5228,204.1796 C63.5138,204.1406 62.5488,203.5986 62.0868,202.6356 C60.8728,200.1036 62.8478,197.7916 64.1008,197.7916 C64.5428,197.7916 65.0838,198.0936 65.2858,198.5146 C65.8648,199.7206 65.0048,201.6496 63.0528,202.1706 Z M64.4858,199.1016 C64.4208,198.9556 64.2918,198.8756 64.1378,198.8756 C63.7618,198.8756 63.4028,199.3186 63.1778,199.8606 C62.9448,200.3836 62.8248,201.0086 62.9098,201.3676 C63.5758,201.1486 63.9728,200.7866 64.2778,200.2216 C64.4028,199.9846 64.6588,199.4626 64.4858,199.1016 Z M74.3022,201.3915 L75.0452,197.4325 C75.1562,196.9295 75.2882,195.6825 76.0332,195.6825 C76.6522,195.6825 76.6672,196.1235 76.7072,196.4885 C76.6052,198.1535 77.0882,200.7275 77.9742,202.5745 C78.1572,202.9555 78.3512,203.3175 78.6252,203.6995 C78.9742,202.7355 78.9692,201.5695 79.1372,198.6155 C79.4162,193.9165 80.2082,190.3805 81.1542,190.3805 C81.2432,190.3805 81.6562,190.4605 81.7892,190.7425 C81.8792,190.9205 81.8692,191.1845 81.7352,191.5455 L81.5062,192.1675 C80.4222,195.1015 80.2922,198.4965 80.1522,201.8315 L80.0142,204.1205 C79.9292,204.7245 79.8892,205.2855 79.0772,205.2855 C78.5712,205.2855 77.7962,205.0415 76.9862,203.3175 C76.5932,202.4945 76.1972,201.3475 75.8242,199.7445 L75.7602,199.6995 C74.8662,203.7595 75.0082,205.7075 74.0392,205.7075 C73.3782,205.7075 72.9422,205.1655 72.5752,204.4025 C72.0362,203.2755 71.2552,199.9035 71.1102,192.0675 C71.0982,191.5875 70.8922,190.9205 71.6182,190.9205 C71.9712,190.9205 72.1782,191.0825 72.3232,191.3855 C73.3442,193.5155 71.8442,197.4535 73.6582,203.7175 L73.7202,203.7595 L74.3022,201.3915 Z M84.2719,194.037 C84.2089,192.067 84.7019,191.808 84.9129,191.745 C85.2239,191.745 85.6399,192.067 85.7649,192.33 C85.9389,192.691 85.7489,193.213 85.6769,193.475 L85.0719,197.454 C85.0389,198.256 84.9189,199.059 84.9189,199.881 L84.9809,199.925 C85.1829,199.38 86.4399,197.915 87.1669,197.915 C87.3859,197.915 87.6789,197.975 87.8649,198.175 C88.0579,198.396 88.1549,198.737 87.9619,199.3 C87.7689,199.86 87.2889,201.751 87.6259,202.452 C87.7099,202.636 87.8589,202.755 88.0789,202.755 C89.0019,202.755 88.9559,200.366 89.5059,200.366 C89.7509,200.366 90.1809,200.484 89.7789,202.031 C89.4469,203.356 88.8449,203.94 88.2449,204.019 C87.6309,204.121 87.0419,203.718 86.7449,203.098 C86.1469,201.853 86.5629,200.465 86.7229,199.419 C86.0549,199.822 84.8219,201.428 85.0179,204.041 C85.0699,204.745 84.2629,204.443 84.0229,203.94 C83.8209,203.518 83.8309,202.574 83.8359,202.171 L84.2719,194.037 Z M94.3585,201.8537 C94.2195,202.7957 93.8295,204.2827 92.4875,204.2827 C91.7375,204.2827 91.0645,203.6577 90.7665,203.0337 C90.2065,201.8707 90.2605,200.4257 90.5695,199.5007 C90.8285,198.7567 91.4895,197.4717 92.5895,197.4717 C93.2955,197.4717 93.7605,197.8947 94.0475,198.4967 C94.5895,199.6197 94.5135,200.8857 94.3585,201.8537 Z M93.2585,198.9557 C93.1625,198.7567 92.9735,198.5947 92.7545,198.5947 C92.1825,198.5947 91.6925,199.8217 91.5665,200.2057 C91.3955,200.7657 91.3105,201.8707 91.6455,202.5737 C91.7715,202.8347 92.0395,203.1177 92.3905,203.1177 C93.1395,203.1177 93.3935,201.9917 93.3445,201.3917 C93.1965,201.3077 92.9395,201.1877 92.8735,201.0477 C92.8055,200.9057 93.6355,199.7437 93.2585,198.9557 Z M98.7129,192.4709 C98.6449,192.3299 98.5189,192.2499 98.3629,192.2499 C97.8139,192.2499 97.3529,193.6739 97.0689,195.2409 C96.7879,196.8079 96.6249,198.4969 96.6749,199.0599 C97.5239,198.0729 98.0369,196.8499 98.3999,195.5839 C98.5599,195.0389 99.0289,193.1339 98.7129,192.4709 Z M96.6749,200.8079 C96.6929,201.2079 96.7489,202.2949 96.9429,202.6939 C97.0209,202.8549 97.1669,202.9749 97.3409,202.9749 C97.9809,202.9749 98.2369,201.8119 98.3219,201.3479 C98.3709,201.1269 98.3789,200.6849 98.7329,200.6849 C98.9089,200.6849 99.0859,200.8259 99.1639,200.9879 C99.3659,201.4109 98.8119,204.1589 97.4269,204.1589 C96.8329,204.1589 96.2769,203.7379 96.0379,203.2359 C94.9849,201.0479 95.8499,191.0449 98.3589,191.0449 C98.8429,191.0449 99.3599,191.3859 99.5809,191.8479 C100.2069,193.1539 99.4759,195.4419 99.0979,196.4879 C98.5339,198.1139 97.7779,199.1989 96.7919,200.5449 L96.6749,200.8079 Z M102.351,199.1016 C102.283,198.9556 102.159,198.8756 102.003,198.8756 C101.63,198.8756 101.269,199.3186 101.046,199.8606 C100.81,200.3836 100.69,201.0086 100.776,201.3676 C101.44,201.1486 101.838,200.7866 102.143,200.2216 C102.269,199.9846 102.526,199.4626 102.351,199.1016 Z M100.917,202.1706 C101.11,202.7956 101.757,203.1366 102.417,203.1366 C104.309,203.1366 104.69,200.8076 105.129,200.8076 C105.282,200.8076 105.529,200.9496 105.574,201.0886 C105.846,201.7896 104.224,204.2396 102.388,204.1796 C101.38,204.1406 100.414,203.5986 99.952,202.6356 C98.738,200.1036 100.713,197.7916 101.967,197.7916 C102.41,197.7916 102.95,198.0936 103.151,198.5146 C103.73,199.7206 102.87,201.6496 100.917,202.1706 Z M111.8167,198.9557 C111.7207,198.7567 111.5317,198.5947 111.3117,198.5947 C110.7417,198.5947 110.2497,199.8217 110.1247,200.2057 C109.9537,200.7657 109.8647,201.8707 110.2047,202.5737 C110.3287,202.8347 110.5957,203.1177 110.9487,203.1177 C111.6987,203.1177 111.9497,201.9917 111.9027,201.3917 C111.7547,201.3077 111.4987,201.1877 111.4287,201.0477 C111.3647,200.9057 112.1937,199.7437 111.8167,198.9557 Z M112.9167,201.8537 C112.7747,202.7957 112.3867,204.2827 111.0457,204.2827 C110.2957,204.2827 109.6237,203.6577 109.3247,203.0337 C108.7657,201.8707 108.8217,200.4257 109.1267,199.5007 C109.3867,198.7567 110.0477,197.4717 111.1467,197.4717 C111.8517,197.4717 112.3187,197.8947 112.6097,198.4967 C113.1477,199.6197 113.0717,200.8857 112.9167,201.8537 Z M115.3857,200.8856 L115.4897,204.6456 C115.5347,206.5316 116.1007,208.7216 117.0907,208.7216 C117.7727,208.7216 117.8917,206.6706 117.9017,206.3716 C117.9887,202.1936 116.0947,200.6236 115.4127,200.6236 L115.3857,200.8856 Z M114.2567,200.9696 C113.9967,201.0246 113.6777,200.8666 113.5887,200.5446 C113.5317,200.2416 113.6857,199.7806 114.3697,199.2796 C114.7207,194.3186 115.5447,191.1246 116.5587,191.1246 C116.7997,191.1246 117.0657,191.2636 117.1747,191.4846 C117.2867,191.7266 117.1587,191.9656 117.0947,192.1466 C116.1937,194.0366 115.6867,196.1466 115.5327,198.3966 C117.8657,197.2496 119.1147,198.0136 119.3837,198.5736 C119.5197,198.8586 119.4337,199.2796 118.4447,198.9176 C118.1377,198.7786 117.9987,198.7186 117.7127,198.7186 C116.8757,198.7186 115.9177,199.1986 115.4317,199.6596 C116.5837,199.9036 118.9187,201.9726 118.9067,206.4896 C118.9067,207.6366 118.7267,209.9266 117.2507,209.9266 C116.3037,209.9266 115.5727,209.0416 115.2237,208.3216 C114.4547,206.7096 114.2587,204.2826 114.2747,202.7956 L114.2567,200.9696 Z M120.8693,192.8113 C120.5703,192.1913 121.4563,192.1063 121.8623,191.9873 C124.7123,191.1843 127.7963,190.6803 131.1603,190.6803 C132.7263,190.6803 132.8873,190.8823 133.0433,191.2053 C133.2453,191.6263 133.1383,191.7263 131.5593,191.8273 C128.9693,191.9873 127.6373,192.0073 126.9223,192.1683 C127.4603,192.3303 127.4543,192.5883 127.3453,193.1933 C126.6383,195.6643 125.8543,201.8323 126.5283,204.6653 C126.5763,204.9033 126.6603,205.3053 126.3103,205.3053 C125.8443,205.3053 125.3353,204.8833 125.1523,204.5023 C124.7073,203.5793 124.8903,200.6033 124.9453,199.6603 C125.4963,195.4423 125.9293,192.9943 126.0503,192.3693 C123.5253,192.7513 122.2723,193.2123 122.2793,193.2313 C121.4403,193.4563 121.0613,193.2123 120.8693,192.8113 Z M133.2568,194.037 C133.1928,192.067 133.6838,191.808 133.8978,191.745 C134.2048,191.745 134.6248,192.067 134.7488,192.33 C134.9238,192.691 134.7318,193.213 134.6568,193.475 L134.0568,197.454 C134.0218,198.256 133.9018,199.059 133.8998,199.881 L133.9618,199.925 C134.1658,199.38 135.4248,197.915 136.1498,197.915 C136.3668,197.915 136.6598,197.975 136.8468,198.175 C137.0408,198.396 137.1358,198.737 136.9458,199.3 C136.7518,199.86 136.2718,201.751 136.6078,202.452 C136.6948,202.636 136.8408,202.755 137.0598,202.755 C137.9868,202.755 137.9408,200.366 138.4898,200.366 C138.7328,200.366 139.1658,200.484 138.7618,202.031 C138.4278,203.356 137.8258,203.94 137.2268,204.019 C136.6148,204.121 136.0268,203.718 135.7258,203.098 C135.1318,201.853 135.5448,200.465 135.7048,199.419 C135.0398,199.822 133.8068,201.428 134.0008,204.041 C134.0508,204.745 133.2468,204.443 133.0048,203.94 C132.8018,203.518 132.8138,202.574 132.8198,202.171 L133.2568,194.037 Z M141.8232,199.1016 C141.7552,198.9556 141.6312,198.8756 141.4752,198.8756 C141.1022,198.8756 140.7412,199.3186 140.5202,199.8606 C140.2822,200.3836 140.1622,201.0086 140.2482,201.3676 C140.9122,201.1486 141.3102,200.7866 141.6152,200.2216 C141.7412,199.9846 141.9982,199.4626 141.8232,199.1016 Z M140.3912,202.1706 C140.5782,202.7956 141.2292,203.1366 141.8892,203.1366 C143.7812,203.1366 144.1602,200.8076 144.6032,200.8076 C144.7572,200.8076 145.0012,200.9496 145.0462,201.0886 C145.3182,201.7896 143.6962,204.2396 141.8622,204.1796 C140.8502,204.1406 139.8862,203.5986 139.4242,202.6356 C138.2102,200.1036 140.1852,197.7916 141.4382,197.7916 C141.8822,197.7916 142.4222,198.0936 142.6252,198.5146 C143.2022,199.7206 142.3422,201.6496 140.3912,202.1706 Z M146.7978,196.0655 C146.4908,196.0655 146.1938,195.8635 146.0618,195.5835 C145.8188,195.0825 146.1528,194.1145 146.7218,194.1145 C147.0528,194.1145 147.3458,194.3185 147.4838,194.5985 C147.7338,195.1215 147.3928,196.0655 146.7978,196.0655 Z M147.0288,198.3355 C147.2408,198.7785 146.2268,200.3835 146.7298,203.6375 C146.7848,203.9805 146.9358,204.4825 146.4518,204.4825 C146.1668,204.4825 145.8538,204.2395 145.7348,204.0015 C145.1488,202.7745 145.6558,197.9545 146.4248,197.9545 C146.6488,197.9545 146.9218,198.1145 147.0288,198.3355 Z M150.5719,200.587 C150.4659,200.366 150.4969,200.206 150.5549,200.043 L150.4909,200.003 C149.6319,201.009 149.1519,202.353 149.0439,203.776 C149.0339,204.082 149.0729,204.622 148.6319,204.622 C148.3699,204.622 148.1129,204.502 147.9869,204.239 C147.7289,203.699 147.7359,201.327 147.7619,200.787 C147.7679,200.206 148.0039,198.073 148.8179,198.073 C149.0169,198.073 149.3149,198.194 149.4129,198.396 C149.6419,198.876 148.7909,199.762 148.9699,200.684 L149.0339,200.727 C149.1699,200.185 150.9839,197.771 151.5809,197.771 C151.7569,197.771 152.1419,198.073 152.2299,198.256 C152.3929,198.595 151.2019,199.419 151.4719,199.984 C151.5489,200.146 151.7289,200.242 151.9049,200.242 C152.5649,200.242 153.2089,199.38 153.4729,199.38 C153.6489,199.38 153.8589,199.542 153.9179,199.66 C154.0709,199.984 153.6459,200.384 153.5039,200.545 C153.1369,200.927 152.5829,201.288 151.8759,201.288 C151.3499,201.288 150.8309,201.127 150.5719,200.587 Z M163.7136,203.0158 C164.0886,203.7978 162.8526,203.5188 162.6976,203.5188 C161.7746,203.5188 160.8386,203.8618 160.1666,204.1998 C159.8126,204.3838 159.5256,204.5228 158.8336,204.6458 C158.2896,204.7448 157.5096,204.2218 157.4236,203.3988 C157.1886,201.3918 157.4046,199.1788 158.5156,195.3448 L159.4806,192.3488 C159.5896,192.0278 159.7646,191.2438 160.2496,191.2438 C160.5126,191.2438 160.9496,191.4648 160.9996,191.7058 C161.1626,192.5088 159.2726,197.2908 158.9856,199.0798 C158.7716,200.4258 158.5466,201.7898 158.7836,203.2968 C162.5546,202.1118 163.3566,202.2748 163.7136,203.0158 Z M165.9532,196.0655 C165.6422,196.0655 165.3492,195.8635 165.2152,195.5835 C164.9722,195.0825 165.3032,194.1145 165.8752,194.1145 C166.2062,194.1145 166.4992,194.3185 166.6372,194.5985 C166.8842,195.1215 166.5462,196.0655 165.9532,196.0655 Z M166.1802,198.3355 C166.3922,198.7785 165.3802,200.3835 165.8832,203.6375 C165.9382,203.9805 166.0892,204.4825 165.6052,204.4825 C165.3202,204.4825 165.0072,204.2395 164.8912,204.0015 C164.3022,202.7745 164.8092,197.9545 165.5782,197.9545 C165.7982,197.9545 166.0752,198.1145 166.1802,198.3355 Z M168.5488,200.8856 L168.6528,204.6456 C168.7018,206.5316 169.2658,208.7216 170.2558,208.7216 C170.9398,208.7216 171.0588,206.6706 171.0678,206.3716 C171.1548,202.1936 169.2618,200.6236 168.5778,200.6236 L168.5488,200.8856 Z M167.4198,200.9696 C167.1638,201.0246 166.8408,200.8666 166.7558,200.5446 C166.6988,200.2416 166.8528,199.7806 167.5368,199.2796 C167.8878,194.3186 168.7118,191.1246 169.7218,191.1246 C169.9668,191.1246 170.2328,191.2636 170.3378,191.4846 C170.4518,191.7266 170.3258,191.9656 170.2578,192.1466 C169.3608,194.0366 168.8498,196.1466 168.6958,198.3966 C171.0328,197.2496 172.2778,198.0136 172.5488,198.5736 C172.6818,198.8586 172.6008,199.2796 171.6118,198.9176 C171.3008,198.7786 171.1628,198.7186 170.8758,198.7186 C170.0388,198.7186 169.0808,199.1986 168.5988,199.6596 C169.7508,199.9036 172.0838,201.9726 172.0718,206.4896 C172.0698,207.6366 171.8938,209.9266 170.4178,209.9266 C169.4688,209.9266 168.7388,209.0416 168.3908,208.3216 C167.6198,206.7096 167.4218,204.2826 167.4398,202.7956 L167.4198,200.9696 Z M175.0019,199.1016 C174.9339,198.9556 174.8099,198.8756 174.6519,198.8756 C174.2789,198.8756 173.9199,199.3186 173.6919,199.8606 C173.4579,200.3836 173.3409,201.0086 173.4239,201.3676 C174.0909,201.1486 174.4889,200.7866 174.7919,200.2216 C174.9169,199.9846 175.1729,199.4626 175.0019,199.1016 Z M173.5699,202.1706 C173.7569,202.7956 174.4029,203.1366 175.0659,203.1366 C176.9579,203.1366 177.3379,200.8076 177.7769,200.8076 C177.9309,200.8076 178.1779,200.9496 178.2229,201.0886 C178.4929,201.7896 176.8729,204.2396 175.0369,204.1796 C174.0279,204.1406 173.0649,203.5986 172.6009,202.6356 C171.3869,200.1036 173.3619,197.7916 174.6169,197.7916 C175.0559,197.7916 175.5979,198.0936 175.7999,198.5146 C176.3789,199.7206 175.5189,201.6496 173.5699,202.1706 Z" id="Tagline" fill="#FFFFFF"></path>
        <path d="M39.5,127.2977 L38.448,124.6717 L31.835,127.3167 L31.398,126.2267 L38.012,123.5787 L36.96,120.9537 L37.941,120.5617 L40.476,126.9047 L39.5,127.2977 Z M37.9233,129.5106 L37.9353,129.5316 C38.5803,129.6626 39.1183,130.0636 39.3883,130.5976 C39.8633,131.5386 39.5733,132.5576 38.2593,133.2256 L35.3163,134.7126 L34.8353,133.7606 L37.8063,132.2566 C38.5143,131.8996 38.7893,131.3026 38.4993,130.7266 C38.2853,130.3066 37.9273,130.0726 37.1963,129.8786 L33.7533,131.6216 L33.2713,130.6696 L40.5653,126.9786 L41.0493,127.9306 L37.9233,129.5106 Z M38.7395,139.428 C38.0345,139.097 37.5565,138.701 37.0815,137.922 C36.2135,136.485 36.9095,134.973 38.1765,134.202 C39.5735,133.355 41.0495,133.667 41.8225,134.936 C42.5615,136.156 42.2025,137.439 40.5015,138.472 L38.5365,135.231 C37.7125,135.929 37.5565,136.738 38.0925,137.62 C38.4285,138.173 38.9495,138.572 39.6225,138.892 L38.7395,139.428 Z M40.5595,137.202 C41.2375,136.749 41.4375,136.083 41.0435,135.435 C40.6215,134.737 39.9575,134.567 39.1545,134.886 L40.5595,137.202 Z M44.9301,148.5634 L44.7881,148.3854 L48.2591,142.0684 L41.3661,144.2114 L41.2231,144.0364 L45.5031,136.2504 L46.2491,137.1604 L43.3211,142.4724 L49.1131,140.6544 L49.8191,141.5164 L46.9061,146.8494 L52.6781,145.0004 L53.4131,145.9014 L44.9301,148.5634 Z M50.4916,153.6533 C49.9146,153.5433 49.7006,153.4673 49.4606,153.2333 C49.1276,152.9063 49.0676,152.6083 49.2666,152.2673 C48.6716,152.2043 48.1956,151.9913 47.8456,151.6453 C47.2806,151.0893 47.3406,150.2753 47.8286,149.7793 C48.5746,149.0183 49.4956,149.4693 50.3296,149.8493 L51.2416,150.2753 L51.4416,150.0683 C51.9136,149.5903 51.8746,149.1663 51.4116,148.7143 C50.9936,148.2993 50.3726,148.0793 49.5746,148.1513 L50.3926,147.3233 C51.0376,147.2663 51.6236,147.5083 52.1796,148.0533 C52.9566,148.8163 53.1876,149.8173 52.3296,150.6893 L50.3906,152.6663 C50.2466,152.8103 50.2466,152.9113 50.3406,153.0053 C50.4176,153.0793 50.6486,153.1533 50.9456,153.1933 L50.4916,153.6533 Z M50.8286,150.6933 C49.9596,150.2783 49.1766,149.9453 48.7346,150.3983 C48.4206,150.7143 48.4356,151.1653 48.7506,151.4753 C48.9916,151.7113 49.3296,151.8113 49.7276,151.8143 L50.8286,150.6933 Z M49.1298,156.5302 L48.2358,155.7492 L52.1878,154.0082 L53.3958,149.4462 L54.3088,150.2432 L53.4098,153.4832 L56.4508,152.1092 L57.3548,152.8972 L49.1298,156.5302 Z M88.1699,168.8329 L85.4199,168.1689 L83.7449,175.0909 L82.6029,174.8129 L84.2809,167.8909 L81.5279,167.2269 L81.7759,166.1999 L88.4209,167.8099 L88.1699,168.8329 Z M89.0683,171.3993 L89.0893,171.4033 C89.5713,170.9563 90.2063,170.7483 90.7983,170.8373 C91.8463,170.9973 92.5063,171.8233 92.2873,173.2813 L91.7943,176.5413 L90.7403,176.3813 L91.2383,173.0863 C91.3553,172.3033 91.0303,171.7333 90.3893,171.6373 C89.9243,171.5653 89.5263,171.7253 88.9443,172.2083 L88.3683,176.0263 L87.3153,175.8663 L88.5343,167.7803 L89.5893,167.9383 L89.0683,171.3993 Z M97.6246,176.4839 C96.9456,176.8689 96.3446,177.0279 95.4386,176.9619 C93.7636,176.8389 92.9316,175.3949 93.0396,173.9119 C93.1596,172.2869 94.2696,171.2609 95.7526,171.3689 C97.1746,171.4759 98.0116,172.5099 97.8656,174.4949 L94.0876,174.2199 C94.1766,175.2939 94.7456,175.8889 95.7746,175.9649 C96.4186,176.0109 97.0476,175.8179 97.6986,175.4569 L97.6246,176.4839 Z M96.8676,173.7099 C96.8886,172.8969 96.4616,172.3469 95.7096,172.2919 C94.8946,172.2329 94.3686,172.6749 94.1626,173.5149 L96.8676,173.7099 Z M106.1176,169.7938 L103.2896,169.8738 L103.4916,176.9908 L102.3186,177.0258 L102.1146,169.9048 L99.2856,169.9878 L99.2566,168.9338 L106.0866,168.7358 L106.1176,169.7938 Z M106.1704,171.4452 L106.2744,172.6762 L106.2984,172.6762 C106.7564,171.6862 107.2344,171.2492 107.7354,171.2082 C108.1704,171.1702 108.5924,171.3392 109.0684,171.7202 L108.5874,172.6852 C108.2344,172.4052 107.7994,172.2242 107.5494,172.2472 C106.8184,172.3052 106.3104,173.0842 106.3854,174.0062 L106.6274,176.8102 L105.5624,176.9022 L105.1064,171.5372 L106.1704,171.4452 Z M113.3789,175.9755 L113.2739,175.3015 C112.9089,175.8445 112.3419,176.2475 111.8209,176.3295 C110.7429,176.4965 109.8649,175.8435 109.6549,174.4935 L109.1419,171.1875 L110.1949,171.0245 L110.7199,174.4025 C110.8359,175.1475 111.2699,175.5155 111.9919,175.4045 C112.4679,175.3295 112.8739,174.9985 113.1419,174.4605 L112.5549,170.6565 L113.6059,170.4935 L114.4339,175.8145 L113.3789,175.9755 Z M115.7197,170.0253 L117.3847,169.6563 L117.5927,170.5923 L115.9297,170.9583 L116.5277,173.6513 C116.6637,174.2733 117.1477,174.3493 117.4517,174.2803 C117.8267,174.1983 118.1847,173.9853 118.5497,173.6353 L118.7637,174.6053 C118.4447,174.8843 117.9187,175.1613 117.5787,175.2373 C116.4427,175.4863 115.7117,174.9153 115.5037,173.9643 L114.8877,171.1893 L113.9747,171.3913 L113.9517,171.2753 L115.4807,168.9353 L115.7197,170.0253 Z M119.0258,169.9472 L119.0488,169.9422 C119.2958,169.3322 119.7888,168.8762 120.3658,168.7122 C121.3798,168.4172 122.3278,168.8892 122.7398,170.3052 L123.6568,173.4732 L122.6328,173.7682 L121.7048,170.5692 C121.4838,169.8072 120.9488,169.4282 120.3268,169.6082 C119.8788,169.7392 119.5798,170.0512 119.2528,170.7322 L120.3308,174.4382 L119.3058,174.7342 L117.0248,166.8842 L118.0508,166.5862 L119.0258,169.9472 Z M148.0219,146.9813 L145.9129,148.8693 L150.6659,154.1743 L149.7919,154.9563 L145.0379,149.6523 L142.9329,151.5393 L142.2299,150.7543 L147.3169,146.1953 L148.0219,146.9813 Z M150.6425,147.702 L150.6595,147.684 C150.5605,147.034 150.7545,146.392 151.1645,145.956 C151.8855,145.186 152.9425,145.108 154.0205,146.118 L156.4215,148.375 L155.6925,149.153 L153.2605,146.871 C152.6855,146.33 152.0315,146.275 151.5865,146.748 C151.2665,147.088 151.1705,147.509 151.2385,148.26 L154.0535,150.901 L153.3215,151.681 L147.3615,146.086 L148.0895,145.306 L150.6425,147.702 Z M159.6851,143.5475 C159.6131,144.3235 159.4051,144.9085 158.8321,145.6195 C157.7811,146.9275 156.1221,146.7895 154.9621,145.8595 C153.6941,144.8375 153.4801,143.3425 154.4091,142.1825 C155.3061,141.0735 156.6331,140.9715 158.1851,142.2195 L155.8111,145.1705 C156.7451,145.7075 157.5571,145.5795 158.2041,144.7765 C158.6111,144.2705 158.8061,143.6435 158.8811,142.9015 L159.6851,143.5475 Z M156.9711,142.5985 C156.3121,142.1155 155.6171,142.1575 155.1451,142.7445 C154.6341,143.3785 154.7001,144.0635 155.2731,144.7075 L156.9711,142.5985 Z M162.2255,138.9315 L164.1955,135.8095 L165.0885,136.3715 L162.4935,140.4895 L155.5745,136.1305 L156.2025,135.1355 L162.2255,138.9315 Z M165.8584,134.8983 L165.3374,135.8293 L160.6384,133.2043 L161.1594,132.2733 L165.8584,134.8983 Z M160.0344,132.2503 C159.8634,132.5513 159.4714,132.6633 159.1684,132.4953 C158.8634,132.3243 158.7544,131.9333 158.9234,131.6283 C159.0944,131.3273 159.4844,131.2153 159.7864,131.3833 C160.0904,131.5543 160.2014,131.9453 160.0344,132.2503 Z M161.3339,128.161 C161.1879,128.29 161.1169,128.374 161.0289,128.544 C160.6329,129.312 160.9529,129.788 161.6879,130.167 L162.1459,130.403 L162.5929,129.54 L163.4419,129.982 L162.9969,130.844 L166.9269,132.875 L166.4369,133.823 L162.5069,131.793 L162.1599,132.463 L161.3089,132.021 L161.6569,131.351 L161.3049,131.171 C160.3689,130.685 160.0349,130.229 159.8519,129.649 C159.6559,129.035 159.7429,128.393 160.4079,127.684 L161.3339,128.161 Z M168.9445,127.3209 C169.0735,128.0869 169.0165,128.7049 168.6435,129.5369 C167.9525,131.0679 166.3125,131.3519 164.9555,130.7409 C163.4705,130.0699 162.8865,128.6769 163.4995,127.3219 C164.0865,126.0209 165.3435,125.5909 167.1575,126.4089 L165.6015,129.8619 C166.6445,130.1469 167.3965,129.8169 167.8225,128.8769 C168.0865,128.2869 168.1215,127.6309 168.0045,126.8939 L168.9445,127.3209 Z M166.0815,127.0809 C165.3225,126.7759 164.6615,126.9929 164.3505,127.6809 C164.0145,128.4239 164.2515,129.0679 164.9665,129.5489 L166.0815,127.0809 Z" id="ShieldText" fill="#000000"></path>
    </g>
</svg>